
<svg width="703px" height="681px" viewBox="0 0 703 681" version="1.1" xmlns="http://www.w3.org/2000/svg" xmlns:xlink="http://www.w3.org/1999/xlink">
    <!-- Generator: Sketch 49 (51002) - http://www.bohemiancoding.com/sketch -->
    <desc>Created with Sketch.</desc>
    <defs></defs>
    <g id="Page-1" stroke="none" stroke-width="1" fill="none" fill-rule="evenodd">
        <g id="Group-6" transform="translate(0.000000, 2.000000)">
            <path d="M320.5,75.5 L320.5,549.567506" id="Line" stroke="#F7D0CB" stroke-width="15" stroke-linecap="square"></path>
            <circle id="Oval" stroke="#F7D0CB" stroke-width="3" fill="#FFFFFF" cx="319.5" cy="224.5" r="37.5"></circle>
            <g id="Group-3" transform="translate(282.000000, 365.000000)">
                <circle id="Oval" stroke="#F7D0CB" stroke-width="3" fill="#FFFFFF" cx="37.5" cy="37.5" r="37.5"></circle>
                <g id="if_Proposal_342724" transform="translate(12.000000, 12.000000)" fill-rule="nonzero">
                    <ellipse id="Oval" fill="#333333" cx="12.1778234" cy="19.3182505" rx="4.10102669" ry="4.31360691"></ellipse>
                    <ellipse id="Oval" fill="#333333" cx="39.673306" cy="9.8137149" rx="4.10102669" ry="4.31360691"></ellipse>
                    <path d="M49.9120123,27.0134989 L48.1351129,20.7612311 C48.0353183,20.4102592 47.8215606,20.1073434 47.5310062,19.9056156 L42.4650924,16.3631749 C41.7475359,15.6088553 40.7578029,15.1187905 39.661499,15.1187905 C39.6514374,15.1187905 39.6415811,15.1187905 39.6315195,15.1187905 C38.7740246,15.1187905 37.9793634,15.4240821 37.3274127,15.9047516 C37.3197125,15.9083153 37.3117043,15.9234341 37.3040041,15.9268898 L31.9823409,18.3792657 L26.4246407,19.6817495 C25.62423,19.8688985 25.1197125,20.7045356 25.2975359,21.5463283 C25.4513347,22.2740821 26.0647844,22.7700864 26.7453799,22.7699784 C26.8519507,22.7699784 26.9604723,22.7580994 27.0687885,22.7328294 L32.7671458,21.4006479 C32.8605749,21.3787257 32.9519507,21.3475162 33.0394251,21.3071274 C33.0394251,21.3071274 34.0854209,21.0326134 35.2811088,20.7698704 L31.812423,36.9330454 L35.6737166,36.9330454 L35.5347023,48.5584233 C35.5240246,49.4207343 36.1797741,49.7840173 36.9995893,49.8920086 C37.0062628,49.8920086 37.0129363,49.8920086 37.0195072,49.8920086 C37.8301848,49.8920086 38.4928131,49.4139309 38.5033881,48.5584233 L39.3396304,36.9330454 L40.0552361,36.9330454 L40.8272074,48.5584233 C40.8310062,49.4184665 41.4948665,49.8920086 42.3116016,49.8920086 C42.3138604,49.8920086 42.3163244,49.8920086 42.3185832,49.8920086 C43.138501,49.7840173 43.8,49.4208423 43.7963039,48.5584233 L43.7466119,36.9330454 L47.6646817,36.9330454 L43.7672485,21.4065875 L45.4450719,22.1758099 L47.0674538,27.8962203 C47.2598563,28.5734341 47.85,29.0165227 48.4893224,29.0165227 C48.6299795,29.0165227 48.7731006,28.9982721 48.9149897,28.9537797 C49.700308,28.7068035 50.1468172,27.8396328 49.9120123,27.0134989 Z" id="Shape" fill="#333333"></path>
                    <path d="M26.7550308,8.9087473 C28.2809035,7.84632829 30.5771047,6.84719222 30.5438398,4.21457883 C30.4830595,-0.578293737 25.6799795,-1.5100432 24.0171458,2.63099352 C22.3829569,-1.32311015 17.5065708,-0.532289417 17.5042094,4.27321814 C17.5021561,6.90539957 19.8382957,7.80971922 21.3491786,8.9163067 C22.7308008,9.92894168 23.9175565,11.3566955 24.063347,11.938013 C24.225462,11.3424406 25.2747433,9.93920086 26.7550308,8.9087473 Z" id="Shape" fill="#333333"></path>
                    <path d="M23.8455852,22.462203 L22.2337782,22.462203 L23.8951745,20.74946 L23.0179671,19.8704104 L21.4274127,19.8704104 L20.550924,20.75 L22.2296715,22.462203 L20.3285421,22.462203 L20.3285421,18.7467603 C20.3285421,18.6276458 20.2695072,18.574514 20.1563655,18.574514 L19.0632444,18.574514 C18.95,18.574514 18.788501,18.6277538 18.788501,18.7467603 L18.788501,22.5553996 C18.788501,22.674514 18.9501027,22.6781857 19.0632444,22.6781857 L20.0205339,22.6781857 L20.0205339,24.4559395 C20.0205339,24.5276458 20.0542094,24.5898488 20.1047228,24.6284017 L17.5596509,25.85054 L12.9138604,25.1586393 C12.3519507,24.8306695 11.7069815,24.6404968 11.0194045,24.6325054 C11.0040041,24.6322894 10.989117,24.6321814 10.9737166,24.6321814 C8.78480493,24.6321814 6.99774127,26.4859611 6.97330595,28.7941685 C6.94722793,31.2921166 6.99517454,32.8944924 7.11468172,36.9898488 C7.11355236,37.0480562 7.11478439,37.1068035 7.11991786,37.1663067 C7.12525667,37.3482721 7.14271047,37.5398488 7.16919918,37.736933 L7.8650924,45.7909287 L1.65041068,45.4352052 C0.832032854,45.387905 0.131930185,46.0484881 0.0873716632,46.9093952 C0.0428131417,47.7705184 0.670328542,48.5064795 1.48901437,48.5534557 L10.063655,49.0073434 C10.0906571,49.0090713 10.1175565,49.0097192 10.1443532,49.0097192 C10.5462012,49.0097192 10.9323409,48.838013 11.2128337,48.5321814 C11.512115,48.2056156 11.6617043,47.7585313 11.6226899,47.3066955 L12.426386,42.3235421 L17.2161191,41.0901728 L18.3113963,48.3583153 C18.2323409,49.2167387 18.8298768,49.8489201 19.6458932,49.9321814 C19.6945585,49.937149 19.7428131,49.9321814 19.7907598,49.9321814 C20.5460986,49.9319654 21.1921971,49.4665227 21.2666324,48.6592873 L21.110883,38.7838013 C21.1524641,38.3331533 21.0059548,37.8857451 20.7093429,37.5575594 C20.412731,37.2295896 19.9959959,37.0515119 19.5652977,37.0737581 L15.0893224,37.2894168 C15.0468172,35.6419006 15.0195072,34.2264579 15.0023614,33.0521598 L19.0960986,33.9785097 C19.2725873,34.05054 19.4542094,34.0846652 19.6328542,34.0846652 C20.224538,34.0846652 20.7833676,33.7099352 21.0137577,33.0967603 L23.7422998,25.8355292 C24.0437372,25.0335853 23.6698152,24.1264579 22.9073922,23.8095032 C22.1449692,23.4927646 21.2825462,23.8857451 20.9811088,24.687689 L18.7949692,30.5057235 L14.97577,28.9465443 C14.97577,28.9363931 14.9758727,28.9291577 14.9758727,28.9217063 L17.5737166,29.0066955 C17.6428131,29.0170626 17.712423,29.0220302 17.7817248,29.0220302 C17.9936345,29.0220302 18.2039014,28.974406 18.398152,28.8811015 L18.949692,28.6163067 L20.4328542,24.6690065 L20.500924,24.488013 C20.8049281,23.6792657 21.5355236,23.1568035 22.3623203,23.1568035 C22.6140657,23.1568035 22.8616016,23.2064795 23.0973306,23.3043197 C23.4811088,23.4638229 23.8193018,23.7383369 24.0246407,24.0921166 L24.0246407,22.6273218 C24.0246407,22.5082073 23.9587269,22.462203 23.8455852,22.462203 Z M20.1571869,24.6561555 C20.1599589,24.6573434 20.1629363,24.6580994 20.1659138,24.6589633 C20.1629363,24.6580994 20.1600616,24.6573434 20.1571869,24.6561555 Z" id="Shape" fill="#313131"></path>
                </g>
            </g>
            <g id="Group" transform="translate(285.000000, 550.000000)">
                <circle id="Oval" stroke="#F7D0CB" stroke-width="3" fill="#FFFFFF" cx="37.5" cy="37.5" r="37.5"></circle>
                <g id="if_marry_342738" transform="translate(18.000000, 9.000000)" fill="#313131">
                    <circle id="Oval" cx="30" cy="16" r="4"></circle>
                    <path d="M29,21.3389267 L30.9874589,28 L33,21.2547037 C32.83587,21.2046222 32.3331304,21 30.9975648,21 C29.6619993,21 29.052356,21.3611977 29,21.3389267 Z M31.2343845,21.9556194 C31.4352855,21.7760946 31.8169974,21.6520777 32.051869,21.6520777 C32.3817119,21.6520777 32.2952636,21.8960416 32.2952636,22.1967571 C32.2952636,22.4973595 32.3817119,22.7413233 32.051869,22.7413233 C31.8057957,22.7413233 31.3980275,22.6055492 31.2065019,22.411893 C31.1692439,22.4488606 31.1239498,22.4711316 31.0746378,22.4711316 C31.015585,22.4711316 30.9621332,22.4395904 30.9221965,22.3890567 C30.7411421,22.5948093 30.3118227,22.7412103 30.0564958,22.7412103 C29.7265311,22.7412103 29.8131012,22.4972464 29.8131012,22.196644 C29.8131012,21.8958155 29.7265311,21.6519647 30.0564958,21.6519647 C30.3017168,21.6519647 30.7075368,21.7868344 30.9000365,21.9794732 C30.9411908,21.9096077 31.0036527,21.8640482 31.0747595,21.8640482 C31.1373432,21.8641612 31.193839,21.8993201 31.2343845,21.9556194 Z" id="Shape"></path>
                    <circle id="Oval" cx="14.5" cy="15.5" r="1"></circle>
                    <path d="M39.996869,34.1812735 C39.6415531,28.9353655 37.5369635,25.9455777 35.8342113,24.3611048 C34.9634512,23.5509414 34.1107828,23.0141358 33.4265581,22.6661753 L32.1241824,24.7308893 L32.7973949,25.5465087 L30.4021024,28.8283607 L30.405923,28.8419451 L30.398956,28.8325919 L30.3921014,28.8419451 L30.395922,28.8283607 L28.0004049,25.5465087 L28.6737297,24.7308893 L27.197629,22.3908133 C26.9510879,22.5661854 26.760732,22.8228411 26.6738695,23.1355044 C26.6585871,23.190176 25.1404598,28.481625 20.7326093,30.3580507 C19.879042,30.0706632 18.1353869,29.1418035 16.4304996,26.1704993 C17.8305253,26.0012513 19.217179,25.7033972 20.5082052,25.225717 L21.1818671,24.9764103 L16.1273236,16.6283649 C16.0624858,16.1215118 15.9052793,15.6432749 15.6733463,15.2103564 C15.6471639,15.3921866 15.4853502,15.5553105 15.3015118,15.7375861 C15.2569007,15.7816796 15.2050978,15.816086 15.1499238,15.8437001 C15.2050978,15.871537 15.2569007,15.905832 15.3013995,15.9500369 C15.6179475,16.2637024 15.9633749,16.4300553 15.4745626,16.9144163 C14.9855256,17.399 14.8176439,17.0567182 14.5010958,16.7429414 C14.4564847,16.6988478 14.4218745,16.6475167 14.3938942,16.5927338 C14.3659139,16.6474053 14.3313038,16.6987365 14.2866926,16.7429414 C13.9701446,17.0566069 13.7161869,17.3135966 13.3133382,16.9144163 C12.9104895,16.5153474 13.1698409,16.263591 13.4865013,15.9499255 C13.5310001,15.905832 13.5826906,15.8714256 13.637977,15.8435888 C13.5826906,15.8159746 13.5310001,15.7815683 13.486389,15.7374747 C13.1699533,15.4236979 12.8258744,15.2560088 13.3133382,14.772984 C13.800802,14.2899591 13.9700322,14.6307934 14.2866926,14.9444589 C14.3313038,14.9886638 14.3659139,15.0399949 14.3938942,15.0946665 C14.4219869,15.0399949 14.4564847,14.9886638 14.5010958,14.9444589 C14.7694369,14.6785614 14.9969874,14.4588731 15.3021861,14.6375856 C14.5362678,13.6426969 13.3283959,13 11.9678122,13 C9.80445277,13 8.02416481,14.6231104 7.7984122,16.7073102 L3.42123888,25.0553555 L4.14569236,25.2435326 C4.26581657,25.2747098 5.223102,25.5188946 6.68538107,25.7703169 C5.7951809,26.871765 4.97970721,27.9105244 4.82733263,28.1049369 L0.340373195,33.1872756 C-0.16001324,33.7540337 -0.101917622,34.6154168 0.470048907,35.1111353 C0.730973521,35.3372817 1.05392672,35.4482951 1.37541911,35.4481837 C1.7584906,35.4481837 2.13953942,35.2906272 2.41158873,34.9825291 L6.85955555,31.0896028 L3.40056268,48.7885991 L7.93842601,48.7885991 L7.87785824,53.5426858 C7.86785725,54.2956166 8.43971141,54.9880858 9.2540614,54.9880858 C10.0684114,54.9880858 10.6195893,54.2838138 10.629478,53.5368957 L10.966927,48.7885991 L12.9753273,48.7885991 L13.290527,53.5426858 C13.2940104,54.293501 13.8883387,54.9880858 14.666393,54.9880858 C15.4444473,54.9880858 16.0458549,54.2898266 16.0423714,53.5368957 L16.0202344,48.7885991 L20.8012678,48.7885991 L17.0897781,31.3135223 C17.3623893,31.5451248 17.6409561,31.7707146 17.9260404,31.9652384 C19.650143,33.1405098 20.9979164,33.2058707 21.2371535,33.2058707 C21.2371535,33.2058707 22.1580308,33.2064274 22.5252581,32.5288787 C24.3156594,31.6110425 25.6825358,30.2912423 26.7035354,28.9542946 C26.71039,30.1737708 26.7242116,31.6511275 26.7503939,33.2621011 C26.7480341,33.2903833 26.7450001,33.3186655 26.7444383,33.3472818 L26.3606926,53.5658461 C26.3461967,54.3187769 26.8269183,54.9998887 27.7367833,54.9998887 C28.6467607,54.9998887 29.0975917,54.3100918 29.1119752,53.5660687 L30.0462246,41.5505756 C30.2162414,41.5742925 30.3895169,41.5870975 30.5658264,41.5870975 C30.6041448,41.5870975 30.6430251,41.5929989 30.6815682,41.5917741 C30.7355061,41.5901039 30.7892193,41.5867635 30.8425953,41.5828663 L31.7734737,53.5660687 C31.7860592,54.3112053 32.4126378,55 33.1722633,55 C33.9318888,55 34.5374541,54.3189996 34.5247563,53.5660687 L34.266978,38.1950116 C34.2761924,38.0689664 34.2790017,37.941251 34.2750687,37.8120881 C34.2625956,37.4080085 34.2511338,37.0162885 34.2404586,36.6345898 L34.1947237,33.9318554 C34.1933753,33.8549144 34.1841609,33.7799776 34.170564,33.7067111 C34.1198849,31.1168829 34.1138169,29.2194126 34.1149406,27.9252223 C35.5177756,29.3086018 36.9746608,30.2848955 37.2508679,34.3644399 C37.2997491,35.0845232 37.9044155,35.6365834 38.6223514,35.6365834 C38.6532534,35.6365834 38.6844924,35.6353586 38.7159562,35.6333544 C39.474458,35.5824686 40.0476606,34.9327568 39.996869,34.1812735 Z M5.18377228,24.2663482 L8.08630577,18.730603 C8.71254731,20.2451498 10.2142685,21.3124142 11.9681493,21.3124142 C13.7814743,21.3124142 15.3257839,20.1719945 15.9111225,18.5756075 L19.4056245,24.3471864 C18.2678718,24.6998234 17.0560669,24.9173962 15.8335868,25.0374286 C15.591091,24.5373676 15.3515168,23.992545 15.1178982,23.396614 C14.9007982,22.8425495 13.7687764,22.1224662 11.7702646,22.1224662 C9.77175291,22.1224662 9.18338027,22.8095907 8.53679964,23.5465989 C8.27003175,23.8506885 7.94179713,24.2384 7.55939986,24.7007142 C6.5521095,24.5464981 5.72910697,24.3838196 5.18377228,24.2663482 Z M19.2839271,47.4524308 L4.91790336,47.4524308 L8.34419637,29.3746308 C8.36273753,28.2716239 8.90492584,27.3749437 9.97626747,27.3749437 C10.9048984,27.3749437 11.6808176,28.0379058 11.8836466,28.934252 C12.0863632,28.0379058 12.8623948,27.3665926 13.7910258,27.3665926 C14.7960687,27.3665926 15.4051176,28.166178 15.5191738,29.1737602 L19.2839271,47.4524308 Z" id="Shape"></path>
                    <path d="M18.1191641,1 C18.3816465,0.855002705 18.7333064,0.729918484 19.1415829,0.648592823 C19.437158,0.589606618 19.7294105,0.560322687 20,0.557394294 C19.9948168,0.545346048 19.9893678,0.533297802 19.9833872,0.521249556 C19.7925392,0.142064478 19.2073696,-0.0794057118 18.6764242,0.0264347832 C18.1454788,0.132358947 17.8697061,0.525516643 18.0604212,0.904785389 C18.077034,0.937834397 18.0969694,0.969461043 18.1191641,1 Z" id="Shape"></path>
                    <path d="M23.000293,8 C23.5523,8 24,7.69152961 24,7.31110197 C24,7.19909539 23.9609728,7.09342105 23.892177,7 C23.3763844,7.04613487 22.7496045,7.13717105 22.0008204,7.29021382 C22.0003516,7.29712171 22,7.30411184 22,7.31110197 C22.0001172,7.69144737 22.4478172,8 23.000293,8 Z" id="Shape"></path>
                    <path d="M17.4919642,7.32774765 C17.6815485,8.19969926 17.4719556,8.52005782 17.2358319,9.0761826 C16.9999294,9.63277219 16.1948318,11.6828578 20.8418025,10.7682614 C25.5526682,9.84099944 26.98157,6.42116896 25.3544614,5.92453768 C23.7273528,5.42779019 23.1550625,3.35214099 22.664907,2.69724769 C21.9471398,1.28997078 20.3434667,0.628221788 18.9118013,1.21235035 C17.5377297,1.77289067 16.7833722,3.29264749 17.0548701,4.78242515 C17.1040626,5.73501834 17.3554414,6.69981235 17.4919642,7.32774765 Z M21.0920759,7.19109852 C23.1282002,6.41024633 24.983031,6.36702058 25.2354047,7.09430538 C25.4877784,7.82170638 24.0420738,9.04422809 22.0062812,9.82496408 C19.9703781,10.6057001 18.1154367,10.6489258 17.8629524,9.92175721 C17.6104682,9.19435622 19.0561728,7.97171831 21.0920759,7.19109852 Z" id="Shape"></path>
                    <polygon id="Rectangle-path" points="14.807362 6 16 7.20490798 14.192638 8 13 6.79509202"></polygon>
                    <polygon id="Rectangle-path" points="38.8072277 10 40 11.2048827 38.1927723 12 37 10.7951173"></polygon>
                    <polygon id="Rectangle-path" points="31 9.20490798 29.192638 10 28 8.79509202 29.807362 8"></polygon>
                    <polygon id="Rectangle-path" points="11.8072759 3 13 4.20485058 11.1927241 5 10 3.79514942"></polygon>
                    <polygon id="Rectangle-path" points="7.90848885 6 8 7.90847714 6.09151115 8 6 6.09152286"></polygon>
                    <polygon id="Rectangle-path" points="33.9084889 7 34 8.90847714 32.0915111 9 32 7.09152286"></polygon>
                    <polygon id="Rectangle-path" points="29.9082978 3 30 4.90828607 28.0917022 5 28 3.09171393"></polygon>
                    <polygon id="Rectangle-path" points="9.90848885 8 10 9.90847714 8.09151115 10 8 8.09152286"></polygon>
                    <polygon id="Rectangle-path" points="4.90848885 11 5 12.9084771 3.09151115 13 3 11.0915229"></polygon>
                </g>
            </g>
            <g id="Group-4" transform="translate(282.000000, 0.000000)">
                <circle id="Oval" stroke="#F7D0CB" stroke-width="3" fill="#FFFFFF" cx="37.5" cy="37.5" r="37.5"></circle>
                <g id="if_Flirt_342725" transform="translate(16.000000, 18.000000)" fill="#313131" fill-rule="nonzero">
                    <circle id="Oval" cx="34" cy="4" r="4"></circle>
                    <path d="M49.8943415,12.820815 C49.599334,12.1147943 48.7760274,11.7767526 48.0554751,12.0658344 C45.8992263,12.9308968 43.3918739,13.5110354 42.7644261,13.2938863 C40.9559936,12.1654174 39.4921961,10.9580514 38.7163961,10.277914 C38.537292,10.0767729 38.3368734,9.89455059 38.1178977,9.73488514 C38.1149285,9.73197457 38.1122775,9.7294798 38.1118533,9.72906401 C37.9548058,9.57688287 37.7700814,9.46981555 37.5742227,9.40453566 C37.0635266,9.1495491 36.4866606,9.0036049 35.8744827,9.00007064 C35.0911538,8.99539294 34.3623303,9.22324885 33.7555605,9.61742293 C33.6094353,9.6794804 33.4711571,9.76534216 33.3486791,9.87854247 C33.3324548,9.89361505 31.684251,11.4069026 28.7902712,13.2417039 C28.3373678,13.5289146 27.2796033,13.8727775 26.1126161,14.1843122 L26,17.0734669 C27.528801,16.7001865 29.3754084,16.162563 30.3216172,15.5625702 C30.93634,15.1727619 31.5151148,14.8180884 32.0498823,14.4983417 C32.0532756,16.5198352 32.0754383,19.990168 32.1728905,23.5557179 L31.9609134,39.6203907 C31.9506274,40.3835833 32.3548578,41 33.3710539,41 C34.38725,41 34.7702721,40.3774503 34.7804521,39.6203907 L35.6908188,28.1277006 C35.7923005,28.1357047 35.8946306,28.1409021 35.9979151,28.1409021 C36.0372565,28.1409021 36.0770221,28.1402785 36.1165756,28.1390311 C36.1271797,28.1387192 36.1375718,28.1375758 36.1481759,28.13716 L36.9872827,39.6202868 C36.9908881,40.3814003 37.4517447,40.9998961 38.396999,40.9998961 C39.3423594,40.9998961 39.8106389,40.3835833 39.8071395,39.6202868 L39.7387427,25.0854293 C39.7858251,24.8316901 39.8072455,24.5693232 39.7988682,24.3009273 C39.6825407,20.5891213 39.6556061,16.841453 39.6510463,14.6595664 C40.1541074,14.9544693 40.6985247,15.2819082 41.2774055,15.6422989 C41.7563952,15.9404243 42.3737691,16.0895909 43.1565678,16.0895909 C43.9877214,16.0895909 45.00519,15.9212977 46.2403619,15.5842955 C47.7585588,15.1701632 49.0697625,14.6452215 49.124798,14.6230804 C49.8452443,14.3338946 50.1894552,13.5269396 49.8943415,12.820815 Z" id="Shape"></path>
                    <circle id="Oval" cx="9" cy="5" r="4"></circle>
                    <path d="M14.7532506,7.26354424 C14.4788703,6.53793657 13.6910477,6.18081399 12.9935623,6.46657577 C12.296077,6.75201897 11.9529995,7.57160627 12.2273798,8.29721394 L13.3763473,11.3359947 L11.3671853,10.7425957 C10.7098158,10.0782606 9.79746048,9.67505083 8.78619348,9.66740503 C8.00888469,9.65965303 7.28659487,9.88902704 6.69047099,10.2930863 L3.75405052,11.0408881 L5.088286,7.99828439 C5.39941366,7.28881786 5.09879982,6.45139036 4.41683003,6.12771816 C3.7349623,5.80404595 2.92988884,6.11678042 2.61876117,6.82624695 L0.12239036,12.5185451 C-0.0933983177,13.0108497 -0.0199035931,13.5881076 0.311741352,14.0049099 C0.573055928,14.3333607 0.958392852,14.5165414 1.35720381,14.5165414 C1.46448569,14.5165414 1.57278834,14.5032674 1.67996814,14.4759761 L4.92537269,13.9941845 L1.61025023,29.2878024 L5.1397323,29.2878024 L5.01336221,39.5831908 C5.00346083,40.36285 5.36858671,41 6.35259941,41 C7.33661211,41 7.71776392,40.3529742 7.72735907,39.5795802 L8.49150005,29.2878024 L9.14611348,29.2878024 L9.85186699,39.5831908 C9.85533757,40.3607262 10.3283578,41 11.2088654,41 C12.089373,41 12.5696407,40.3594519 12.5661701,39.5795802 L12.5207463,29.2878024 L16.1028995,29.2878024 L12.41571,14.7449596 C12.4155059,14.599477 12.4154038,14.4783124 12.4154038,14.3538557 L15.272205,14.8241786 C15.3945941,14.86039 15.5191269,14.8815221 15.6426388,14.8815221 C16.020218,14.8815221 16.3872833,14.7190489 16.6483937,14.419376 C16.9949418,14.021582 17.09467,13.4547309 16.9057273,12.9553115 L14.7532506,7.26354424 Z" id="Shape"></path>
                    <path d="M22.1263221,8.63256205 C22.242478,8.58170827 22.345873,8.50984967 22.4386886,8.42649369 C22.4499225,8.55196986 22.4762075,8.67589832 22.5260509,8.79319367 C22.8809534,9.62951726 23.1619088,10.3105157 24.2114561,9.85272114 C25.2612215,9.3945949 24.9663056,8.72011899 24.611294,7.88390596 C24.5613415,7.7661684 24.4904483,7.66180759 24.4083212,7.56717534 C24.5321117,7.55600962 24.6543753,7.52958776 24.7704221,7.47895509 C25.5952923,7.11921986 26.363557,7.06195408 25.8151704,5.77059971 C25.266893,4.47924533 24.6976747,5.00525031 23.8730226,5.36520663 C23.7570849,5.41583931 23.653908,5.48769791 23.5607652,5.57061169 C23.5495313,5.44535661 23.5232463,5.32175981 23.4734029,5.20391171 C23.1182822,4.36769867 22.8234754,3.69322276 21.7881068,4.14482644 C20.75252,4.59654068 21.0331482,5.27764969 21.3881598,6.11353107 C21.4382213,6.23137918 21.5091146,6.33551888 21.5911326,6.42993003 C21.4673421,6.44142741 21.3451876,6.46784926 21.2288136,6.51837139 C20.4039434,6.87843827 19.6375328,6.93913115 20.1840652,8.22683732 C20.7308158,9.51465404 21.3014519,8.99185507 22.1263221,8.63256205 Z M22.7532365,6.2226456 C23.1285345,6.05880798 23.5636009,6.23436408 23.7254556,6.61521468 C23.8870922,6.99529141 23.7135674,7.43661379 23.3382694,7.60034085 C22.9627533,7.76406792 22.5273597,7.58851182 22.3659413,7.20799288 C22.2046319,6.82714228 22.3777205,6.38615156 22.7532365,6.2226456 Z" id="Shape"></path>
                    <path d="M27,18.7689528 L26.722722,10.0116578 C26.722722,10.0116578 23.2243368,9.76137541 22,11.5801688 L25.9153403,19 L27,18.7689528 Z" id="Shape"></path>
                    <path d="M25.2840116,19.1651451 L25,19.9385651 C26.1250446,20.1993591 27,19.5454595 27,19.5454595 L26.2298681,19 L25.2840116,19.1651451 Z" id="Shape"></path>
                    <path d="M25,7.47483553 C25.141703,7.8232315 25.2485827,8.18079277 25.2301469,8.5490087 C25.2294239,8.56332948 25.2276165,8.57845223 25.226773,8.59323127 C25.2427989,8.59082538 25.2591863,8.58841949 25.2754533,8.58612817 C25.3831765,8.57123455 25.4847544,8.53732294 25.5805485,8.49206927 C25.5619921,8.59231474 25.5565698,8.69450784 25.5718728,8.79658637 C25.6818854,9.5239675 25.7647865,10.114442 26.7379101,9.98108684 C27.7113952,9.84773173 27.6154806,9.25943403 27.5053475,8.53205289 C27.4896831,8.4295161 27.4540163,8.33328045 27.4066615,8.24197115 C27.5119748,8.25961435 27.6193365,8.26511353 27.7269392,8.25033448 C28.4919667,8.14573549 29.1427642,8.26465526 28.9727447,7.1415623 C28.8026047,6.01835477 28.213501,6.30717629 27.448594,6.41200441 C27.3412323,6.42678346 27.2397749,6.46069507 27.1437398,6.50549047 C27.1622961,6.4055887 27.1679594,6.30351017 27.152536,6.20108794 C27.0515605,5.53373952 26.9603453,4.98485261 26.2044755,5.00031906 C26.3726875,5.41401779 26.5161979,5.96485233 26.2837617,6.4894512 C26.0314436,7.0583872 25.4789706,7.2970287 25,7.47483553 Z M27.0498736,7.35454096 C27.1001203,7.68529373 26.8585264,7.99210215 26.5104142,8.03987628 C26.1621815,8.08730671 25.8394938,7.8578305 25.7893676,7.5268486 C25.7393619,7.19563757 25.9808354,6.88882915 26.3288271,6.84151329 C26.6770598,6.79373916 26.9996269,7.02332993 27.0498736,7.35454096 Z" id="Shape"></path>
                    <path d="M23,10.5285039 C22.9367863,10.4770311 22.8755635,10.4214121 22.8181236,10.3572986 C22.6476954,10.1665762 22.5230598,9.94399918 22.4113656,9.70453426 C22.2192357,9.79635612 22.0207346,9.88453745 21.8086948,9.93166188 C21.7774364,9.93863953 21.7465761,9.9432913 21.7157159,9.94824645 C21.6381671,10.134216 21.4607704,10.2680049 21.2488302,10.2748814 C20.9584452,10.2840839 20.7155452,10.0525067 20.7063866,9.75762509 C20.7054907,9.7329505 20.7087758,9.70918603 20.7113641,9.68542157 C20.5187364,9.52564346 20.3483082,9.29790909 20.2003781,9.00434209 C20.1773822,9.00282521 20.1544859,8.99938695 20.1310919,9.00009482 C19.4930811,9.02062328 18.9703483,8.85831703 19.0013081,9.85652572 C19.0323674,10.8546333 19.5440503,10.6590568 20.1821606,10.6389328 C20.271954,10.6358991 20.3585618,10.6155729 20.4415858,10.5848308 C20.4166985,10.6710907 20.4023634,10.760081 20.4051508,10.8509928 C20.4251602,11.4993076 20.4362101,12.0251596 21.2481333,11.9990693 C22.0602556,11.9729789 22.0382553,11.4477337 22.0181463,10.7995199 C22.0153589,10.7082037 21.99525,10.6203258 21.9651862,10.5358861 C22.0500021,10.5611674 22.1375058,10.5760328 22.2272992,10.5731002 C22.5249513,10.5635944 22.7971187,10.5942354 23,10.5285039 Z" id="Shape"></path>
                    <path d="M24.0326235,15.9485211 C24.1965274,16.5692985 24.9329034,17 25.7583807,17 C25.838082,17 25.9188424,16.9944268 26,16.9862136 L24.2787441,15 C24.0434798,15.2716206 23.9425955,15.6071865 24.0326235,15.9485211 Z" id="Shape"></path>
                </g>
            </g>
            <g id="Group-2" transform="translate(301.000000, 200.000000)" fill="#313131" fill-rule="nonzero">
                <g id="if_couple_1851880">
                    <path d="M26,4.31135531 C26,4.39194139 26,4.43223443 26,4.51282051 C25.9122257,5.84249084 25.1661442,7.09157509 23.9373041,7.93772894 L19.5485893,10.8388278 C19.4169279,10.959707 19.1974922,11 19.0219436,11 C18.846395,11 18.6708464,10.959707 18.4952978,10.8388278 L14.1065831,7.93772894 C12.8777429,7.13186813 12.0877743,5.88278388 12,4.55311355 C12,4.47252747 12,4.39194139 12,4.35164835 C12,1.97435897 14.0188088,0 16.5203762,0 C17.3981191,0 18.2319749,0.241758242 18.9341693,0.684981685 C19.6363636,0.241758242 20.5141066,0 21.3918495,0 C22.6206897,0 23.7617555,0.443223443 24.6394984,1.28937729 C25.5172414,2.05494505 26,3.14285714 26,4.31135531 Z" id="Shape"></path>
                    <path d="M39,21.1578947 L39,29.8736842 C39,31.6421053 37.5197889,33.0736842 35.6358839,33.2 L35.6358839,47.5578947 C35.6358839,48.9052632 34.4248021,50 32.944591,50 C31.8680739,50 29.1319261,50 28.055409,50 C26.5751979,50 25.3641161,48.9052632 25.3641161,47.5578947 L25.3641161,33.1578947 C23.4802111,33.0315789 22,31.6 22,29.8315789 C22,29.8315789 22,29.8315789 22,29.8315789 L22,21.1578947 C22,19.4315789 23.525066,18 25.408971,18 L35.5461741,18 C37.474934,18 39,19.4315789 39,21.1578947 Z" id="Shape"></path>
                    <path d="M25,13.9774011 C25,11.7627119 27.0454545,10 29.5,10 C32.0056818,10 34,11.8079096 34,13.9774011 C34,16.1468927 32.0056818,18 29.5,18 C26.9943182,18 25,16.1920904 25,13.9774011 Z" id="Shape"></path>
                    <path d="M4,13.9774011 C4,11.7627119 5.99431818,10 8.5,10 C10.9545455,10 13,11.8079096 13,13.9774011 C13,16.1468927 10.9545455,18 8.5,18 C5.99431818,18 4,16.1920904 4,13.9774011 Z" id="Shape"></path>
                    <path d="M17,21.1620553 L17,29.8893281 C17,31.027668 16.3753281,32.0395257 15.3937008,32.629776 L16.2860892,37.8998682 C16.2860892,37.942029 16.2860892,38.0263505 16.2414698,38.0685112 C16.1968504,38.1106719 16.152231,38.1528327 16.0629921,38.1528327 L13.6089239,38.1528327 L13.6089239,47.5546772 C13.6089239,48.9038208 12.4041995,50 10.9317585,50 C9.86089239,50 7.13910761,50 6.06824147,50 C4.59580052,50 3.39107612,48.9038208 3.39107612,47.5546772 L3.39107612,38.1528327 L0.937007874,38.1528327 C0.892388451,38.1528327 0.803149606,38.1106719 0.758530184,38.0685112 C0.713910761,38.0263505 0.713910761,37.942029 0.713910761,37.8998682 L1.60629921,32.629776 C0.624671916,32.0395257 0,31.027668 0,29.8893281 C0,29.8893281 0,29.8893281 0,29.8893281 L0,21.1620553 C0,19.4334651 1.51706037,18 3.39107612,18 L13.4750656,18 C15.4829396,18 17,19.4334651 17,21.1620553 Z" id="Shape"></path>
                </g>
            </g>
            <g id="Group-5" transform="translate(1.000000, 2.000000)" font-weight="normal">
                <text id="Our-first-date" font-family="GreatVibes-Regular, Great Vibes" font-size="36" letter-spacing="-0.117522337" fill="#000000">
                    <tspan x="0" y="31">Our first date</tspan>
                </text>
                <text id="July-17,-2016" font-family="PlayfairDisplay-Regular, Playfair Display" font-size="26" letter-spacing="-0.1044643" fill="#F7D0CB">
                    <tspan x="5" y="68">July 17, 2016</tspan>
                </text>
                <text id="Our-first-date-was-t" font-family="PlayfairDisplay-Regular, Playfair Display" font-size="18" letter-spacing="-0.0883928686" fill="#000000">
                    <tspan x="3" y="101">Our first date was to the Oasis </tspan>
                    <tspan x="3" y="125">for dinner and wine tasting in </tspan>
                    <tspan x="3" y="149">Austin, TX.</tspan>
                </text>
            </g>
            <g id="Group-5" transform="translate(0.000000, 365.000000)" font-weight="normal">
                <text id="Our-engagement" font-family="GreatVibes-Regular, Great Vibes" font-size="36" letter-spacing="-0.117522337" fill="#000000">
                    <tspan x="1" y="31">Our engagement</tspan>
                </text>
                <text id="December.-30,-2017" font-family="PlayfairDisplay-Regular, Playfair Display" font-size="26" letter-spacing="-0.1044643" fill="#F7D0CB">
                    <tspan x="0" y="68">December. 30, 2017</tspan>
                </text>
                <text id="We-got-engaged-in-Ca" font-family="PlayfairDisplay-Regular, Playfair Display" font-size="18" letter-spacing="-0.0883928686" fill="#000000">
                    <tspan x="1" y="101">We got engaged in Cancun, </tspan>
                    <tspan x="1" y="125">Mexico and celebrated with </tspan>
                    <tspan x="1" y="149">family &amp; friends.</tspan>
                </text>
            </g>
            <g id="Group-5" transform="translate(424.000000, 550.000000)" font-weight="normal">
                <text id="Just-married!" font-family="GreatVibes-Regular, Great Vibes" font-size="36" letter-spacing="-0.117522337" fill="#000000">
                    <tspan x="0" y="31">Just married! </tspan>
                </text>
                <text id="April-19,-2019" font-family="PlayfairDisplay-Regular, Playfair Display" font-size="26" letter-spacing="-0.1044643" fill="#F7D0CB">
                    <tspan x="5" y="71">April 19, 2019</tspan>
                </text>
                <text id="We-are-so-excited-fo" font-family="PlayfairDisplay-Regular, Playfair Display" font-size="18" letter-spacing="-0.0723214373" fill="#000000">
                    <tspan x="3" y="101">We are so excited for this day to </tspan>
                    <tspan x="3" y="125">finally come! </tspan>
                </text>
            </g>
            <g id="Group-5" transform="translate(424.000000, 187.000000)" font-weight="normal">
                <text id="“I-love-you”" font-family="GreatVibes-Regular, Great Vibes" font-size="36" letter-spacing="-0.117522337" fill="#000000">
                    <tspan x="0" y="31">“I love you”</tspan>
                </text>
                <text id="October-30,-2016" font-family="PlayfairDisplay-Regular, Playfair Display" font-size="26" letter-spacing="-0.1044643" fill="#F7D0CB">
                    <tspan x="5" y="69">October 30, 2016</tspan>
                </text>
                <text id="We-had-our-first-tri" font-family="PlayfairDisplay-Regular, Playfair Display" font-size="18" letter-spacing="-0.0883928686" fill="#000000">
                    <tspan x="5" y="101">We had our first trip to the UK and </tspan>
                    <tspan x="5" y="125">told each other “I love you”.</tspan>
                </text>
            </g>
        </g>
    </g>
</svg>
