
<svg width="64px" height="18px" viewBox="0 0 64 18" version="1.1" xmlns="http://www.w3.org/2000/svg" xmlns:xlink="http://www.w3.org/1999/xlink">
    <!-- Generator: Sketch 49 (51002) - http://www.bohemiancoding.com/sketch -->
    <desc>Created with Sketch.</desc>
    <defs></defs>
    <g id="Page-1" stroke="none" stroke-width="1" fill="none" fill-rule="evenodd">
        <g id="amazon-logo">
            <path d="M39.725484,13.7849994 C36.003257,16.5335493 30.6081162,18 25.9630005,18 C19.4497989,18 13.5862461,15.5866409 9.15024171,11.5727543 C8.8017191,11.2571164 9.11399413,10.826959 9.53222338,11.0727628 C14.3195367,13.863211 20.2388568,15.541949 26.3533478,15.541949 C30.4770717,15.541949 35.0134501,14.6872159 39.1845758,12.913509 C39.814706,12.6453566 40.3416727,13.3269083 39.725484,13.7849994" id="path8" fill="#FF9900"></path>
            <path d="M40.3815899,12.6051498 C39.935272,12.0240445 37.4201488,12.3305913 36.2912313,12.4665381 C35.9473039,12.5091881 35.8947978,12.2053072 36.204592,11.9867243 C38.2077655,10.555286 41.4947552,10.9684573 41.8780622,11.448269 C42.2613673,11.9307477 41.7782974,15.276104 39.8958914,16.8728094 C39.6070987,17.1180466 39.3314326,16.9874327 39.4600782,16.6622253 C39.8827648,15.5906456 40.8305316,13.1889211 40.3815899,12.6051498" id="path10" fill="#FF9900"></path>
            <path d="M36.3790523,1.71348608 L36.3790523,0.345841007 C36.3790523,0.138860268 36.5500533,0 36.7552543,0 L43.4157445,0 C43.6294976,0 43.8004987,0.141480594 43.8004987,0.345841007 L43.8004987,1.51698564 C43.7976505,1.71348608 43.6180973,1.97024701 43.2988938,2.37634851 L39.8475231,6.90634683 C41.1300322,6.87752824 42.4837906,7.05306707 43.6465976,7.65567001 C43.9087993,7.79190995 43.9800496,7.99103071 44,8.18753314 L44,9.64687862 C44,9.84599938 43.7605979,10.0791784 43.5097966,9.95865939 C41.4606328,8.97091456 38.7388664,8.8634942 36.4731023,9.96913969 C36.2422513,10.08442 36,9.85385936 36,9.6547386 L36,8.26875324 C36,8.04605255 36.0028482,7.66614931 36.2450995,7.32816828 L40.2436754,2.05670776 L36.7638043,2.05670776 C36.5500533,2.05670776 36.3790523,1.91784849 36.3790523,1.71348608" id="path12" fill="#221F1F"></path>
            <path d="M13.2748554,10 L11.3447575,10 C11.1601646,9.98743223 11.0135737,9.85922701 11,9.69582685 L11,0.522877421 C11,0.339368073 11.1655924,0.193564904 11.3719039,0.193564904 L13.1716997,0.193564904 C13.3590107,0.201101537 13.5083134,0.334338857 13.5218881,0.500251221 L13.5218881,1.69934778 L13.5571784,1.69934778 C14.0268081,0.540472487 14.9090598,0 16.098067,0 C17.3060747,0 18.0607402,0.540472487 18.6036654,1.69934778 C19.0705812,0.540472487 20.1319991,0 21.2694284,0 C22.0783867,0 22.9633545,0.309200446 23.5035647,1.00301657 C24.1143554,1.7747611 23.9894821,2.89592734 23.9894821,3.87883472 L23.9867682,9.66817623 C23.9867682,9.85168558 23.8211758,10 23.6148643,10 L21.6874792,10 C21.4947425,9.98743223 21.3400088,9.84414415 21.3400088,9.66817623 L21.3400088,4.80643605 C21.3400088,4.41930721 21.3780119,3.45399777 21.285716,3.08697812 C21.1418411,2.47109231 20.7102155,2.2976366 20.1510017,2.2976366 C19.6840858,2.2976366 19.1954535,2.5867269 18.9972858,3.04927194 C18.7991181,3.51181602 18.8181207,4.28607276 18.8181207,4.80643605 L18.8181207,9.66817623 C18.8181207,9.85168558 18.6525283,10 18.4462168,10 L16.5188339,10 C16.3233811,9.98743223 16.1713614,9.84414415 16.1713614,9.66817623 L16.1686475,4.80643605 C16.1686475,3.78330933 16.3505255,2.27752645 14.9796413,2.27752645 C13.5924665,2.27752645 13.6467593,3.74560027 13.6467593,4.80643605 L13.6467593,9.66817623 C13.6467593,9.85168558 13.4811669,10 13.2748554,10" id="path14" fill="#221F1F"></path>
            <path d="M49.4637337,1.17662681e-14 C52.4070066,1.17662681e-14 54,2.45831284 54,5.58411527 C54,8.60409493 52.2396146,11 49.4637337,11 C46.5734664,11 45,8.54168716 45,5.47829353 C45,2.39590507 46.5929955,0 49.4637337,0 M49.4804715,2.02146155 C48.0186011,2.02146155 47.9265352,3.95880577 47.9265352,5.16625676 C47.9265352,6.37641937 47.9070061,8.95954671 49.4637337,8.95954671 C51.0009311,8.95954671 51.073467,6.87568049 51.073467,5.6058207 C51.073467,4.77010471 51.037199,3.77158453 50.7777432,2.97927939 C50.5545564,2.2900854 50.110975,2.02146155 49.4804715,2.02146155" id="path16" fill="#221F1F"></path>
            <path d="M58.2923648,10 L56.3533034,10 C56.1588479,9.98743223 56.002737,9.84414415 56.002737,9.66817623 L56,0.492709794 C56.0164326,0.324283301 56.1780218,0.193564904 56.3752142,0.193564904 L58.1800766,0.193564904 C58.34988,0.201101537 58.4895583,0.306687276 58.5279028,0.449975357 L58.5279028,1.8526895 L58.5635051,1.8526895 C59.1085258,0.598290738 59.8726456,0 61.2173906,0 C62.0910637,0 62.942828,0.289090292 63.4905857,1.08094497 C64,1.81498237 64,3.04927194 64,3.93665105 L64,9.71091163 C63.9780902,9.87179477 63.816501,10 63.6247879,10 L61.6720309,10 C61.494008,9.98743223 61.3461134,9.86676843 61.3269438,9.71091163 L61.3269438,4.72850765 C61.3269438,3.72549108 61.4529275,2.25741534 60.1081816,2.25741534 C59.6343727,2.25741534 59.1989041,2.54902072 58.98254,2.99145273 C58.7086626,3.55203729 58.6730583,4.11010676 58.6730583,4.72850765 L58.6730583,9.66817623 C58.6703213,9.85168558 58.5005148,10 58.2923669,10" id="path18" fill="#221F1F"></path>
            <path d="M32.1650841,6.14570598 C32.1650841,6.89564391 32.1856837,7.5210438 31.773697,8.18705484 C31.4411654,8.72852785 30.9114686,9.06153285 30.3258594,9.06153285 C29.5224855,9.06153285 29.0516444,8.49840043 29.0516444,7.66724124 C29.0516444,6.02658229 30.6495628,5.72877307 32.1650841,5.72877307 L32.1650841,6.14570598 M34.275044,10.8375585 C34.1367356,10.9512679 33.9366262,10.9593899 33.7806602,10.883585 C33.0861681,10.3529428 32.9596298,10.1065734 32.580014,9.60029715 C31.4323372,10.6778257 30.6171908,11 29.1310972,11 C27.3683834,11 26,10.000985 26,8.00024831 C26,6.43810087 26.9181429,5.37410865 28.230614,4.85429608 C29.3665195,4.3940433 30.9526655,4.3128241 32.1650841,4.18557839 L32.1650841,3.9365013 C32.1650841,3.4789562 32.2033402,2.93748422 31.9090646,2.54221175 C31.655987,2.1875463 31.1674871,2.04134886 30.734903,2.04134886 C29.9374131,2.04134886 29.2282099,2.41767166 29.0545852,3.19739102 C29.0192723,3.37066325 28.8809639,3.54122676 28.6896827,3.54934879 L26.6621212,3.3490028 C26.4914407,3.31380909 26.3001618,3.18656131 26.3501892,2.94560831 C26.8151451,0.682256119 29.039873,0 31.0291775,0 C32.0473741,0 33.3775017,0.24907709 34.1808756,0.958404897 C35.1990699,1.83288188 35.1019595,2.99975375 35.1019595,4.2695063 L35.1019595,7.26926006 C35.1019595,8.17081183 35.50806,8.56608429 35.8906189,9.05341083 C36.0230445,9.22667997 36.0524723,9.43514694 35.8817851,9.56510034 C35.455085,9.89269204 34.6958522,10.5018479 34.2779804,10.8429749 L34.2750395,10.8375533" id="path28" fill="#221F1F"></path>
            <path d="M6.16347402,6.14570598 C6.16347402,6.89564391 6.18406596,7.5210438 5.77218897,8.18705484 C5.43974198,8.72852785 4.91312595,9.06153285 4.32472737,9.06153285 C3.52156331,9.06153285 3.05378747,8.49840043 3.05378747,7.66724124 C3.05378747,6.02658229 4.65128854,5.72877307 6.16347402,5.72877307 L6.16347402,6.14570598 M8.27288164,10.8375585 C8.13460819,10.9512679 7.93455108,10.9593899 7.7786258,10.883585 C7.08431734,10.3529428 6.96075226,10.1065734 6.57829324,9.60029715 C5.43091607,10.6778257 4.61892834,11 3.13027837,11 C1.37096621,11 0,10.000985 0,8.00024831 C0,6.43810087 0.920843321,5.37410865 2.23002923,4.85429608 C3.36563803,4.3940433 4.95137196,4.3128241 6.16347402,4.18557839 L6.16347402,3.9365013 C6.16347402,3.4789562 6.20172003,2.93748422 5.91046253,2.54221175 C5.65450746,2.1875463 5.16613856,2.04134886 4.73660648,2.04134886 C3.93932824,2.04134886 3.22736458,2.41767166 3.05378747,3.19739102 C3.01848268,3.37066325 2.88020923,3.54122676 2.69192263,3.54934879 L0.661948261,3.3490028 C0.49131237,3.31380909 0.303024645,3.18656131 0.350096576,2.94560831 C0.817873542,0.682256119 3.03907686,0 5.02786511,0 C6.04579251,0 7.3755726,0.24907709 8.17873665,0.958404897 C9.19666731,1.83288188 9.09957998,2.99975375 9.09957998,4.2695063 L9.09957998,7.26926006 C9.09957998,8.17081183 9.50557665,8.56608429 9.88803567,9.05341083 C10.0233668,9.22667997 10.0527869,9.43514694 9.88215097,9.56510034 C9.45556237,9.89269204 8.69652902,10.5018479 8.27876409,10.8429749 L8.27288164,10.8375533" id="path30" fill="#221F1F"></path>
        </g>
    </g>
</svg>
