
<svg width="118px" height="41px" viewBox="0 0 118 41" version="1.1" xmlns="http://www.w3.org/2000/svg" xmlns:xlink="http://www.w3.org/1999/xlink">
    <!-- Generator: Sketch 49 (51002) - http://www.bohemiancoding.com/sketch -->
    <desc>Created with Sketch.</desc>
    <defs></defs>
    <g id="Page-1" stroke="none" stroke-width="1" fill="none" fill-rule="evenodd">
        <g id="amazon-logo">
            <path d="M73.4952447,31.3657129 C66.65115,37.6481126 56.7310524,41 48.1900332,41 C36.2141463,41 25.432775,35.4837506 17.2762509,26.3091528 C16.635419,25.5876947 17.2096021,24.6044776 17.9786043,25.1663149 C26.7810837,31.5444823 37.6649947,35.3815977 48.9077685,35.3815977 C56.4900995,35.3815977 64.8311824,33.427922 72.5006715,29.373735 C73.6592982,28.7608151 74.6282369,30.3186475 73.4952447,31.3657129" id="path8" fill="#FF9900"></path>
            <path d="M74.0329149,28.7453496 C73.2146652,27.3894372 68.6036062,28.104713 66.5339241,28.4219222 C65.9033904,28.5214389 65.8071292,27.8123835 66.3750854,27.3023568 C70.0475702,23.9623341 76.0737179,24.9264004 76.7764474,26.0459611 C77.4791733,27.1717446 76.5935453,34.977576 73.1424675,38.7032219 C72.6130143,39.2754421 72.1076265,38.9706763 72.3434767,38.2118591 C73.1184022,35.7115063 74.8559747,30.1074825 74.0329149,28.7453496" id="path10" fill="#FF9900"></path>
            <path d="M66.7107232,3.94101798 L66.7107232,0.795434315 C66.7107232,0.319378616 67.03135,0 67.4161019,0 L79.9045209,0 C80.3053081,0 80.625935,0.325405365 80.625935,0.795434315 L80.625935,3.48906698 C80.6205946,3.94101798 80.2839324,4.53156812 79.6854259,5.46560157 L73.2141058,15.8845977 C75.6188104,15.818315 78.1571074,16.2220543 80.3373706,17.608041 C80.8289987,17.9213929 80.9625931,18.3793706 81,18.8313262 L81,22.1878208 C81,22.6457986 80.5511211,23.1821103 80.0808687,22.9049166 C76.2386865,20.6331035 71.1353745,20.3860367 66.8870668,22.9290213 C66.4542212,23.1941661 66,22.6638765 66,22.2058988 L66,19.0181325 C66,18.5059209 66.0053404,17.6321434 66.4595616,16.854787 L73.9568914,4.73042784 L67.4321331,4.73042784 C67.03135,4.73042784 66.7107232,4.41105153 66.7107232,3.94101798" id="path12" fill="#221F1F"></path>
            <path d="M24.1997331,23 L20.6364754,23 C20.2956884,22.9710941 20.0250592,22.6762221 20,22.3004018 L20,1.20261807 C20,0.780546569 20.3057091,0.44519928 20.6865918,0.44519928 L24.0092917,0.44519928 C24.3550966,0.462533536 24.6307323,0.768979371 24.6557934,1.15057781 L24.6557934,3.9084999 L24.7209446,3.9084999 C25.5879534,1.24308672 27.2167259,0 29.4118161,0 C31.641984,0 33.0352127,1.24308672 34.0375361,3.9084999 C34.8995346,1.24308672 36.8590752,0 38.9589447,0 C40.4524063,0 42.0861929,0.711161025 43.0835041,2.30693811 C44.2111176,4.08195053 43.9805823,6.66063289 43.9805823,8.92131985 L43.975572,22.2368053 C43.975572,22.6588768 43.669863,23 43.2889802,23 L39.7307308,23 C39.3749092,22.9710941 39.0892471,22.6415315 39.0892471,22.2368053 L39.0892471,11.0548029 C39.0892471,10.1644066 39.1594067,7.94419487 38.9890142,7.10004967 C38.723399,5.68351232 37.9265518,5.28456419 36.894157,5.28456419 C36.0321585,5.28456419 35.130068,5.94947186 34.76422,7.01332546 C34.3983719,8.07717685 34.4334536,9.85796735 34.4334536,11.0548029 L34.4334536,22.2368053 C34.4334536,22.6588768 34.1277446,23 33.7468618,23 L30.1886164,23 C29.8277805,22.9710941 29.5471288,22.6415315 29.5471288,22.2368053 L29.5421185,11.0548029 C29.5421185,8.70161146 29.8778932,5.23831084 27.3470302,5.23831084 C24.786092,5.23831084 24.8863249,8.61488063 24.8863249,11.0548029 L24.8863249,22.2368053 C24.8863249,22.6588768 24.5806159,23 24.1997331,23" id="path14" fill="#221F1F"></path>
            <path d="M91.4314969,2.67415184e-14 C96.9910125,2.67415184e-14 100,5.58707463 100,12.6911711 C100,19.5547612 96.6748277,25 91.4314969,25 C85.9721033,25 83,19.4129254 83,12.4506671 C83,5.44523879 86.0089915,0 91.4314969,0 M91.4631128,4.5942308 C88.7018021,4.5942308 88.5278997,8.99728583 88.5278997,11.7414926 C88.5278997,14.4918622 88.4910115,20.3626062 91.4314969,20.3626062 C94.3350921,20.3626062 94.4721043,15.6265466 94.4721043,12.7405016 C94.4721043,10.8411471 94.4035982,8.57178302 93.913515,6.77108953 C93.4919398,5.20473955 92.6540639,4.5942308 91.4631128,4.5942308" id="path16" fill="#221F1F"></path>
            <path d="M107.298184,23 L103.662444,23 C103.29784,22.9710941 103.005132,22.6415315 103.005132,22.2368053 L103,1.13323253 C103.030811,0.745851592 103.333791,0.44519928 103.703527,0.44519928 L107.087644,0.44519928 C107.406025,0.462533536 107.667922,0.705380734 107.739818,1.03494332 L107.739818,4.26118586 L107.806572,4.26118586 C108.828486,1.3760687 110.261211,0 112.782607,0 C114.420744,0 116.017802,0.664907671 117.044848,2.48617344 C118,4.17445944 118,7.01332546 118,9.05429742 L118,22.3350967 C117.958919,22.705128 117.655939,23 117.296477,23 L113.635058,23 C113.301265,22.9710941 113.023963,22.6935674 112.98802,22.3350967 L112.98802,10.8755676 C112.98802,8.56862948 113.224239,5.19205528 110.70284,5.19205528 C109.814449,5.19205528 108.997945,5.86274765 108.592262,6.88034128 C108.078742,8.16968576 108.011984,9.45324555 108.011984,10.8755676 L108.011984,22.2368053 C108.006852,22.6588768 107.688465,23 107.298188,23" id="path18" fill="#221F1F"></path>
            <path d="M59.0971515,13.9675136 C59.0971515,15.671918 59.1342307,17.0932814 58.3926546,18.6069428 C57.7940977,19.8375633 56.8406435,20.5943929 55.786547,20.5943929 C54.340474,20.5943929 53.4929598,19.3145464 53.4929598,17.4255483 C53.4929598,13.6967779 56.3692131,13.0199388 59.0971515,13.0199388 L59.0971515,13.9675136 M62.8950792,24.6308148 C62.646124,24.8892451 62.2859271,24.9077043 62.0051883,24.7354205 C60.7551025,23.5294154 60.5273337,22.9694849 59.8440252,21.8188572 C57.7782069,24.2677858 56.3109434,25 53.635975,25 C50.4630902,25 48,22.7295113 48,18.1823825 C48,14.6320474 49.6526573,12.2138833 52.0151052,11.0324911 C54.0597351,9.98646204 56.9147979,9.80187296 59.0971515,9.51267816 L59.0971515,8.94659386 C59.0971515,7.90671864 59.1660123,6.67610051 58.6363162,5.77775398 C58.1807765,4.97169614 57.3014768,4.63942922 56.5228255,4.63942922 C55.0873436,4.63942922 53.8107779,5.49470832 53.4982534,7.26679777 C53.4346902,7.6605983 53.185735,8.04824265 52.8414289,8.06670179 L49.1918182,7.61137001 C48.8845933,7.5313843 48.5402913,7.2421848 48.6303405,6.69456434 C49.4672612,1.55058209 53.4717714,0 57.0525195,0 C58.8852734,0 61.279503,0.566084295 62.725576,2.17819295 C64.5583259,4.16564064 64.383527,6.81762217 64.383527,9.70342342 L64.383527,16.5210456 C64.383527,18.5700269 65.1145079,19.4683734 65.8031141,20.5759337 C66.0414801,20.9697272 66.0944501,21.4435158 65.7872131,21.7388644 C65.019153,22.483391 63.652534,23.8678361 62.9003647,24.6431248 L62.8950711,24.6308031" id="path28" fill="#221F1F"></path>
            <path d="M11.0942532,13.9675136 C11.0942532,15.671918 11.1313187,17.0932814 10.3899401,18.6069428 C9.79153557,19.8375633 8.8436267,20.5943929 7.78450926,20.5943929 C6.33881396,20.5943929 5.49681744,19.3145464 5.49681744,17.4255483 C5.49681744,13.6967779 8.37231937,13.0199388 11.0942532,13.0199388 L11.0942532,13.9675136 M14.891187,24.6308148 C14.6422947,24.8892451 14.2821919,24.9077043 14.0015264,24.7354205 C12.7517712,23.5294154 12.5293541,22.9694849 11.8409278,21.8188572 C9.77564892,24.2677858 8.31407101,25 5.63450107,25 C2.46773918,25 0,22.7295113 0,18.1823825 C0,14.6320474 1.65751798,12.2138833 4.01405262,11.0324911 C6.05814846,9.98646204 8.91246953,9.80187296 11.0942532,9.51267816 L11.0942532,8.94659386 C11.0942532,7.90671864 11.1630961,6.67610051 10.6388326,5.77775398 C10.1781134,4.97169614 9.2990494,4.63942922 8.52589167,4.63942922 C7.09079084,4.63942922 5.80925625,5.49470832 5.49681744,7.26679777 C5.43326882,7.6605983 5.18437662,8.04824265 4.84546073,8.06670179 L1.19150687,7.61137001 C0.884362266,7.5313843 0.545444362,7.2421848 0.630173838,6.69456434 C1.47217238,1.55058209 5.47033835,0 9.0501572,0 C10.8824265,0 13.2760307,0.566084295 14.721726,2.17819295 C16.5540012,4.16564064 16.379244,6.81762217 16.379244,9.70342342 L16.379244,16.5210456 C16.379244,18.5700269 17.110038,19.4683734 17.7984642,20.5759337 C18.0420602,20.9697272 18.0950164,21.4435158 17.7878718,21.7388644 C17.0200123,22.483391 15.6537522,23.8678361 14.9017754,24.6431248 L14.891187,24.6308031" id="path30" fill="#221F1F"></path>
        </g>
    </g>
</svg>
