
<svg width="110px" height="100px" viewBox="0 0 110 100" version="1.1" xmlns="http://www.w3.org/2000/svg" xmlns:xlink="http://www.w3.org/1999/xlink">
    <!-- Generator: Sketch 49 (51002) - http://www.bohemiancoding.com/sketch -->
    <desc>Created with Sketch.</desc>
    <defs></defs>
    <g id="Page-1" stroke="none" stroke-width="1" fill="none" fill-rule="evenodd">
        <g id="if_Artboard_1465_2884802" fill="#F7D0CB" fill-rule="nonzero">
            <path d="M7.1,57.35 C7.36580298,57.3515368 7.62128117,57.2471865 7.81,57.06 L9.33,55.54 C9.71772359,55.1499625 9.71772359,54.5200375 9.33,54.13 C9.1422334,53.9406873 8.88663754,53.8342017 8.62,53.8342017 C8.35336246,53.8342017 8.0977666,53.9406873 7.91,54.13 L6.4,55.65 C6.01227641,56.0400375 6.01227641,56.6699625 6.4,57.06 C6.58626064,57.2447442 6.83766012,57.3488954 7.1,57.35 Z" id="Shape"></path>
            <path d="M0.31,63.15 C0.498718831,63.3371865 0.754197015,63.4415368 1.02,63.44 C1.28580298,63.4415368 1.54128117,63.3371865 1.73,63.15 L3.24,61.63 C3.42931265,61.4422334 3.53579832,61.1866375 3.53579832,60.92 C3.53579832,60.6533625 3.42931265,60.3977666 3.24,60.21 C2.84996255,59.8222764 2.22003745,59.8222764 1.83,60.21 L0.31,61.73 C0.120687349,61.9177666 0.0142016757,62.1733625 0.0142016757,62.44 C0.0142016757,62.7066375 0.120687349,62.9622334 0.31,63.15 Z" id="Shape"></path>
            <path d="M0.31,54.13 C-0.0777235947,54.5200375 -0.0777235947,55.1499625 0.31,55.54 L1.83,57.06 C2.22003745,57.4477236 2.84996255,57.4477236 3.24,57.06 C3.62772359,56.6699625 3.62772359,56.0400375 3.24,55.65 L1.73,54.13 C1.5422334,53.9406873 1.28663754,53.8342017 1.02,53.8342017 C0.753362464,53.8342017 0.4977666,53.9406873 0.31,54.13 Z" id="Shape"></path>
            <path d="M6.4,61.63 L7.91,63.15 C8.0977666,63.3393127 8.35336246,63.4457983 8.62,63.4457983 C8.88663754,63.4457983 9.1422334,63.3393127 9.33,63.15 C9.51931265,62.9622334 9.62579832,62.7066375 9.62579832,62.44 C9.62579832,62.1733625 9.51931265,61.9177666 9.33,61.73 L7.81,60.21 C7.55634143,59.9581278 7.18757901,59.8607134 6.84262196,59.9544521 C6.49766492,60.0481907 6.22892044,60.3188412 6.13762196,60.6644521 C6.04632349,61.010063 6.14634143,61.3781278 6.4,61.63 Z" id="Shape"></path>
            <path d="M91.24,16 C91.505803,16.0015368 91.7612812,15.8971865 91.95,15.71 L93.47,14.19 C93.8593607,13.7978778 93.8571222,13.1643607 93.465,12.775 C93.0728778,12.3856393 92.4393607,12.3878778 92.05,12.78 L90.54,14.29 C90.2528386,14.5748091 90.1655097,15.004552 90.3187321,15.3788524 C90.4719545,15.7531528 90.8355559,15.9983042 91.24,16 Z" id="Shape"></path>
            <path d="M84.45,21.82 C84.6377666,22.0093127 84.8933625,22.1157983 85.16,22.1157983 C85.4266375,22.1157983 85.6822334,22.0093127 85.87,21.82 L87.38,20.3 C87.6686826,19.9052854 87.6295579,19.359689 87.2875089,19.0102041 C86.9454598,18.6607192 86.4008309,18.6098717 86,18.89 L84.48,20.41 C84.0838551,20.7917343 84.0704502,21.4217615 84.45,21.82 Z" id="Shape"></path>
            <path d="M86,15.74 C86.1887188,15.9271865 86.444197,16.0315368 86.71,16.03 C87.1144441,16.0283042 87.4780455,15.7831528 87.6312679,15.4088524 C87.7844903,15.034552 87.6971614,14.6048091 87.41,14.32 L85.9,12.81 C85.6481278,12.5563414 85.280063,12.4563234 84.9344521,12.5476219 C84.5888412,12.6389204 84.3181907,12.9076649 84.224452,13.2526219 C84.1307134,13.597579 84.2281277,13.9663414 84.48,14.22 L86,15.74 Z" id="Shape"></path>
            <path d="M90.54,20.3 L92.05,21.82 C92.2370714,22.0108556 92.4927541,22.1188906 92.76,22.12 C93.1662651,22.1223626 93.53358,21.8786962 93.689371,21.5034815 C93.8451619,21.1282668 93.7584599,20.6960905 93.47,20.41 L92,18.89 C91.6032397,18.5502232 91.0118058,18.5730677 90.6424368,18.9424368 C90.2730677,19.3118058 90.2502232,19.9032397 90.59,20.3 L90.54,20.3 Z" id="Shape"></path>
            <path d="M27.47,13.12 C27.735803,13.1215368 27.9912812,13.0171865 28.18,12.83 L29.7,11.31 C30.0877236,10.9199625 30.0877236,10.2900375 29.7,9.9 C29.5122334,9.71068735 29.2566375,9.60420168 28.99,9.60420168 C28.7233625,9.60420168 28.4677666,9.71068735 28.28,9.9 L26.76,11.42 C26.4786714,11.7070058 26.396495,12.1345455 26.551379,12.5053946 C26.7062631,12.8762437 27.0681103,13.1183384 27.47,13.12 Z" id="Shape"></path>
            <path d="M20.68,18.92 C20.8687188,19.1071865 21.124197,19.2115368 21.39,19.21 C21.6523399,19.2088954 21.9037394,19.1047442 22.09,18.92 L23.61,17.4 C23.7993127,17.2122334 23.9057983,16.9566375 23.9057983,16.69 C23.9057983,16.4233625 23.7993127,16.1677666 23.61,15.98 C23.2199625,15.5922764 22.5900375,15.5922764 22.2,15.98 L20.68,17.5 C20.4906873,17.6877666 20.3842017,17.9433625 20.3842017,18.21 C20.3842017,18.4766375 20.4906873,18.7322334 20.68,18.92 Z" id="Shape"></path>
            <path d="M22.2,12.83 C22.5900375,13.2177236 23.2199625,13.2177236 23.61,12.83 C23.9977236,12.4399625 23.9977236,11.8100375 23.61,11.42 L22.09,9.9 C21.8456101,9.61462384 21.4618816,9.49031806 21.096581,9.57818987 C20.7312805,9.66606167 20.4460617,9.95128045 20.3581899,10.316581 C20.2703181,10.6818816 20.3946238,11.0656101 20.68,11.31 L22.2,12.83 Z" id="Shape"></path>
            <path d="M26.76,17.4 L28.28,18.92 C28.4677666,19.1093127 28.7233625,19.2157983 28.99,19.2157983 C29.2566375,19.2157983 29.5122334,19.1093127 29.7,18.92 C29.8893127,18.7322334 29.9957983,18.4766375 29.9957983,18.21 C29.9957983,17.9433625 29.8893127,17.6877666 29.7,17.5 L28.18,16 C27.7878778,15.6078778 27.1521222,15.6078778 26.76,16 C26.3678778,16.3921222 26.3678778,17.0278778 26.76,17.42 L26.76,17.4 Z" id="Shape"></path>
            <path d="M93.22,83.83 C93.22,84.4927417 93.7572583,85.03 94.42,85.03 C95.0827417,85.03 95.62,84.4927417 95.62,83.83 C95.62,83.1672583 95.0827417,82.63 94.42,82.63 C93.7572583,82.63 93.22,83.1672583 93.22,83.83 Z" id="Shape"></path>
            <path d="M107.52,22.84 C107.52,22.1772583 106.982742,21.64 106.32,21.64 C105.657258,21.64 105.12,22.1772583 105.12,22.84 C105.12,23.5027417 105.657258,24.04 106.32,24.04 C106.982742,24.04 107.52,23.5027417 107.52,22.84 Z" id="Shape"></path>
            <path d="M83.17,55.82 C83.1780129,55.3302053 82.8875104,54.8847115 82.4360812,54.6945148 C81.984652,54.5043182 81.4629358,54.607607 81.1180294,54.9554613 C80.7731229,55.3033157 80.6742779,55.825892 80.8683096,56.2756862 C81.0623413,56.7254804 81.5102912,57.012181 82,57 C82.643304,56.9839985 83.1594739,56.4634169 83.17,55.82 Z" id="Shape"></path>
            <path d="M76.84,9.5 C77.327151,9.50404296 77.768402,9.21316473 77.956699,8.76385784 C78.1449961,8.31455095 78.0429665,7.79599284 77.6984868,7.45151319 C77.3540072,7.10703353 76.8354491,7.0050039 76.3861422,7.19330096 C75.9368353,7.38159801 75.645957,7.82284898 75.65,8.31 C75.65,8.96721885 76.1827811,9.5 76.84,9.5 Z" id="Shape"></path>
            <path d="M29.1,27.76 C28.442547,27.7603654 27.9077988,28.2896936 27.9007361,28.9471088 C27.8936734,29.6045239 28.4169262,30.1452185 29.0742196,30.1597083 C29.7315129,30.1741982 30.2780848,29.6570877 30.3,29 C30.3108438,28.6748677 30.1892191,28.3592648 29.9629894,28.1254941 C29.7367597,27.8917234 29.425313,27.7598192 29.1,27.76 Z" id="Shape"></path>
            <path d="M13.42,70.27 C13.9062611,70.2699831 14.344444,69.9765187 14.52958,69.5268805 C14.714716,69.0772423 14.6102029,68.5603258 14.2649287,68.217929 C13.9196546,67.8755321 13.4018817,67.7753483 12.9538085,67.9642404 C12.5057352,68.1531325 12.2159478,68.5937558 12.22,69.08 C12.2199888,69.3973479 12.3467352,69.7015544 12.572071,69.9250124 C12.7974068,70.1484704 13.1026633,70.2726668 13.42,70.27 Z" id="Shape"></path>
            <path d="M4.42,81.7 C4.42,82.3627417 4.9572583,82.9 5.62,82.9 C6.2827417,82.9 6.82,82.3627417 6.82,81.7 C6.82,81.0372583 6.2827417,80.5 5.62,80.5 C4.9572583,80.5 4.42,81.0372583 4.42,81.7 Z" id="Shape"></path>
            <path d="M8,19.71 C8,19.0472583 7.4627417,18.51 6.8,18.51 C6.1372583,18.51 5.6,19.0472583 5.6,19.71 C5.6,20.3727417 6.1372583,20.91 6.8,20.91 C7.4627417,20.91 8,20.3727417 8,19.71 Z" id="Shape"></path>
            <path d="M6.36,74.6 C6.36,75.1522847 6.80771525,75.6 7.36,75.6 C14.2159517,75.7036035 20.9265174,77.5923503 26.83,81.08 C26.9853424,81.1680947 27.1614418,81.2129827 27.34,81.21 C27.6930673,81.2099384 28.0199357,81.0236995 28.2,80.72 C28.4815765,80.2450224 28.3248931,79.631719 27.85,79.35 C21.6346247,75.6878972 14.5732232,73.7062936 7.36,73.6 C6.80771525,73.6 6.36,74.0477153 6.36,74.6 Z" id="Shape"></path>
            <path d="M39,98.31 C39,98.8622847 39.4477153,99.31 40,99.31 C40.5522847,99.31 41,98.8622847 41,98.31 C41,92.87 38.24,87.6 33,83.07 C32.5829353,82.7085227 31.9518734,82.7532789 31.59,83.17 C31.2285227,83.5870647 31.2732789,84.2181266 31.69,84.58 C35.07,87.47 39,92.19 39,98.31 Z" id="Shape"></path>
            <path d="M109.35,74.6 C109.35,74.0477153 108.902285,73.6 108.35,73.6 C106.95641,73.6050322 105.564209,73.6884975 104.18,73.85 C103.822734,73.8714359 103.504043,74.0818425 103.343975,74.4019615 C103.183906,74.7220806 103.206778,75.1032784 103.403975,75.4019615 C103.601171,75.7006446 103.942734,75.8714359 104.3,75.85 L104.41,75.85 C105.717407,75.6918804 107.033068,75.6117387 108.35,75.61 C108.616958,75.6100133 108.872839,75.5032849 109.060666,75.3135801 C109.248492,75.1238754 109.35267,74.8669449 109.35,74.6 Z" id="Shape"></path>
            <path d="M97.17,76.34 C97.0877406,76.0858127 96.9071879,75.8751108 96.668604,75.7548795 C96.4300201,75.6346483 96.1532458,75.6148862 95.9,75.7 C85.33,79.22 74.67,87.58 74.67,98.31 C74.67,98.8622847 75.1177153,99.31 75.67,99.31 C76.2222847,99.31 76.67,98.8622847 76.67,98.31 C76.67,88.58 86.67,80.89 96.53,77.6 C97.0543985,77.4284742 97.3407915,76.8646382 97.17,76.34 Z" id="Shape"></path>
            <path d="M13.56,58.29 C13.0077153,58.2099187 12.4950813,58.5927153 12.415,59.145 C12.3349187,59.6972847 12.7177153,60.2099187 13.27,60.29 C31.9318574,63.0577461 45.7722821,79.0441379 45.84,97.91 C45.84,98.4622847 46.2877153,98.91 46.84,98.91 C47.3922847,98.91 47.84,98.4622847 47.84,97.91 C47.7869503,78.0419671 33.2140026,61.1989045 13.56,58.29 Z" id="Shape"></path>
            <path d="M67.87,97.88 C67.87,98.4322847 68.3177153,98.88 68.87,98.88 C69.4222847,98.88 69.87,98.4322847 69.87,97.88 C69.87,76.8931795 86.8831795,59.88 107.87,59.88 C108.422285,59.88 108.87,59.4322847 108.87,58.88 C108.87,58.3277153 108.422285,57.88 107.87,57.88 C85.77861,57.88 67.87,75.78861 67.87,97.88 Z" id="Shape"></path>
            <path d="M59.86,97.88 C59.86,98.4322847 60.3077153,98.88 60.86,98.88 C61.4122847,98.88 61.86,98.4322847 61.86,97.88 C61.86,74.38 72.69,53.18 88.86,45.13 C89.3361403,44.8746623 89.5233673,44.287295 89.2828266,43.8035108 C89.0422858,43.3197267 88.4609683,43.1144848 87.97,43.34 C71.13,51.72 59.86,73.64 59.86,97.88 Z" id="Shape"></path>
            <path d="M23.2,42.47 C23.1058135,42.7179752 23.1140098,42.993212 23.222785,43.2351432 C23.3315603,43.4770744 23.5320013,43.6658755 23.78,43.76 C41.49,50.45 53.85,72.7 53.85,97.88 C53.85,98.4322847 54.2977153,98.8799999 54.85,98.8799999 C55.4022847,98.8799999 55.85,98.4322847 55.85,97.88 C55.85,71.88 42.96,48.88 24.49,41.88 C24.2407473,41.7863266 23.9644283,41.7959289 23.7222796,41.9066791 C23.4801309,42.0174293 23.2921513,42.2201806 23.2,42.47 Z" id="Shape"></path>
            <path d="M57.85,49.73 C58.4022847,49.73 58.85,49.2822847 58.85,48.73 L58.85,26.05 C58.85,25.4977153 58.4022847,25.05 57.85,25.05 C57.2977153,25.05 56.85,25.4977153 56.85,26.05 L56.85,48.73 C56.85,49.2822847 57.2977153,49.73 57.85,49.73 Z" id="Shape"></path>
            <path d="M56.85,60 C56.85,60.5522847 57.2977153,61 57.85,61 C58.4022847,61 58.85,60.5522847 58.85,60 L58.85,54.3 C58.85,53.7477153 58.4022847,53.3 57.85,53.3 C57.2977153,53.3 56.85,53.7477153 56.85,54.3 L56.85,60 Z" id="Shape"></path>
            <path d="M41.51,32.86 C41.6291151,32.85874 41.7472665,32.8384855 41.86,32.8 C42.3750215,32.607988 42.6385312,32.0363058 42.45,31.52 L39.85,24.52 C39.7267434,24.1841703 39.4336866,23.9396075 39.0812212,23.8784361 C38.7287559,23.8172646 38.3704299,23.9487779 38.1412212,24.2234361 C37.9120125,24.4980943 37.8467433,24.8741703 37.97,25.21 L40.57,32.21 C40.7164639,32.6020069 41.0915275,32.8613593 41.51,32.86 Z" id="Shape"></path>
            <path d="M43.66,37.68 C43.1410135,37.8679533 42.8724619,38.4408633 43.06,38.96 L49.31,55.88 C49.4531502,56.2759474 49.8289699,56.5398209 50.25,56.54 C50.3701437,56.54 50.4890981,56.5162091 50.6,56.47 C51.1150215,56.277988 51.3785312,55.7063058 51.19,55.19 L44.94,38.27 C44.747988,37.7549785 44.1763058,37.4914688 43.66,37.68 Z" id="Shape"></path>
            <path d="M53.55,61.59 C53.4267434,61.2541703 53.1336866,61.0096076 52.7812212,60.9484361 C52.4287559,60.8872647 52.0704299,61.0187779 51.8412212,61.2934361 C51.6120125,61.5680943 51.5467434,61.9441703 51.67,62.28 L54.41,69.69 C54.5551776,70.0785864 54.9251891,70.3371965 55.34,70.34 C55.4593119,70.3410405 55.5778471,70.3207202 55.69,70.28 C56.2050215,70.087988 56.4685312,69.5163058 56.28,69 L53.55,61.59 Z" id="Shape"></path>
            <path d="M75.5,28.35 C75.6089975,28.3895611 75.7240452,28.4098636 75.84,28.41 C76.2610301,28.4098209 76.6368498,28.1459474 76.78,27.75 L77.78,25.17 C77.9032566,24.8341703 77.8379875,24.4580943 77.6087788,24.1834361 C77.3795701,23.9087779 77.0212441,23.7772646 76.6687788,23.8384361 C76.3163134,23.8996076 76.0232566,24.1441703 75.9,24.48 L74.9,27.06 C74.8068192,27.310538 74.8178222,27.5879532 74.9305529,27.8303242 C75.0432836,28.0726953 75.2483574,28.259845 75.5,28.35 Z" id="Shape"></path>
            <path d="M73.31,31.38 L67.58,46.91 C67.3914688,47.4263058 67.6549785,47.997988 68.17,48.19 C68.2805749,48.2372719 68.3997493,48.2611068 68.52,48.26 C68.9410301,48.2598209 69.3168498,47.9959474 69.46,47.6 L75.19,32.07 C75.3805382,31.5508523 75.1141477,30.9755383 74.595,30.785 C74.0758523,30.5944618 73.5005382,30.8608523 73.31,31.38 Z" id="Shape"></path>
            <path d="M62.44,64.73 C62.8610301,64.7298209 63.2368498,64.4659474 63.38,64.07 L67.22,53.65 C67.3149718,53.1617028 67.0365901,52.677841 66.5667188,52.5145167 C66.0968475,52.3511925 65.5783689,52.5580708 65.35,53 L61.5,63.38 C61.3114688,63.8963058 61.5749785,64.467988 62.09,64.66 C62.2005749,64.7072719 62.3197493,64.7311068 62.44,64.73 Z" id="Shape"></path>
            <path d="M45.8,15.8 C45.8907448,16.2036499 46.2206874,16.5097413 46.63,16.57 L52.35,17.44 L51.93,23.22 C51.9059323,23.6256497 52.1297333,24.0055264 52.4962159,24.1810869 C52.8626984,24.3566474 53.2989772,24.2929766 53.6,24.02 L57.86,20.09 L62.11,24 C62.2944231,24.1726652 62.5373651,24.2691275 62.79,24.27 C62.9389933,24.269117 63.0859063,24.2349512 63.22,24.17 C63.5981192,23.9873146 63.821819,23.5878508 63.78,23.17 L63.36,17.39 L69.09,16.52 C69.4987597,16.4594335 69.8281683,16.1536873 69.9189811,15.7505672 C70.0097939,15.347447 69.8433052,14.9299877 69.5,14.7 L64.72,11.43 L67.61,6.43 C67.7983087,6.07546964 67.7563568,5.64269589 67.5034597,5.33093478 C67.2505626,5.01917368 66.8357467,4.88886304 66.45,5 L60.91,6.7 L58.79,1.32 C58.6391504,0.938319985 58.2704086,0.687559519 57.86,0.687559519 C57.4495914,0.687559519 57.0808496,0.938319985 56.93,1.32 L54.8,6.7 L49.26,5 C48.868683,4.88144633 48.444611,5.01306516 48.1891848,5.33234784 C47.9337587,5.65163053 47.898439,6.09425131 48.1,6.45 L50.99,11.45 L46.21,14.72 C45.8581888,14.9566716 45.6938803,15.3894843 45.8,15.8 Z M52.88,12.61 C53.3078684,12.3148417 53.4382648,11.7410977 53.18,11.29 L51.1,7.66 L55.1,8.89 C55.5982462,9.04087265 56.1289007,8.78424462 56.32,8.3 L57.86,4.41 L59.39,8.3 C59.5810993,8.78424462 60.1117538,9.04087265 60.61,8.89 L64.61,7.66 L62.53,11.29 C62.2717352,11.7410977 62.4021316,12.3148417 62.83,12.61 L66.28,15 L62.15,15.63 C61.6291505,15.7072596 61.2574427,16.1751742 61.3,16.7 L61.61,20.87 L58.54,18 C58.3555769,17.8273348 58.1126349,17.7308725 57.86,17.73 C57.6073651,17.7308725 57.3644231,17.8273348 57.18,18 L54.11,20.84 L54.41,16.67 C54.4525573,16.1451742 54.0808495,15.6772596 53.56,15.6 L49.43,15 L52.88,12.61 Z" id="Shape"></path>
            <path d="M85.92,39.94 C85.973604,40.3475298 86.2711223,40.6807503 86.67,40.78 L92.3,42.15 L91.37,47.87 C91.3115656,48.2674819 91.4966802,48.6613426 91.84,48.87 C92.1948808,49.0826675 92.6440799,49.054841 92.97,48.8 L97.55,45.26 L101.44,49.55 C101.629059,49.7594794 101.897822,49.879333 102.18,49.88 C102.299921,49.877845 102.418475,49.854134 102.53,49.81 C102.91521,49.6661391 103.173091,49.3011389 103.18,48.89 L103.27,43.1 L109.05,42.74 C109.459289,42.7131554 109.810683,42.4390987 109.936413,42.0486754 C110.062142,41.658252 109.936709,41.2306407 109.62,40.97 L105.15,37.29 L108.46,32.54 C108.693212,32.1994315 108.693212,31.7505685 108.46,31.41 C108.238134,31.0856891 107.8469,30.9213708 107.46,30.99 L101.79,32.19 L100.15,26.64 C100.033842,26.2475097 99.6902189,25.9654346 99.2826181,25.9279794 C98.8750173,25.8905242 98.485742,26.1052518 98.3,26.47 L95.7,31.65 L90.34,29.47 C89.9487288,29.2642393 89.4687818,29.3398063 89.1596667,29.6558419 C88.8505516,29.9718775 88.785628,30.4533797 89,30.84 L91.43,36.09 L86.43,38.93 C86.0675705,39.128881 85.8648842,39.5302793 85.92,39.94 Z M93.25,37.39 C93.7103133,37.1347322 93.8939487,36.566337 93.67,36.09 L91.91,32.3 L95.79,33.87 C96.273729,34.0659197 96.8267824,33.8568916 97.06,33.39 L98.93,29.65 L100.12,33.65 C100.265616,34.1496271 100.770094,34.4540537 101.28,34.35 L105.37,33.48 L103,36.92 C102.703214,37.3457082 102.781393,37.9277028 103.18,38.26 L106.41,40.92 L102.24,41.18 C101.711276,41.2117798 101.299046,41.6503227 101.3,42.18 L101.24,46.36 L98.43,43.26 C98.2409408,43.0505206 97.9721782,42.930667 97.69,42.93 C97.4690506,42.9306878 97.2545498,43.0045323 97.08,43.14 L93.77,45.7 L94.44,41.57 C94.5226409,41.0554473 94.1962551,40.5636926 93.69,40.44 L89.63,39.44 L93.25,37.39 Z" id="Shape"></path>
            <path d="M2,39.39 C2.11376731,39.7864507 2.4592677,40.072382 2.87,40.11 L8.63,40.67 L8.53,46.46 C8.52219242,46.8685317 8.76371765,47.2407181 9.14,47.4 C9.26398634,47.450383 9.39619111,47.4775019 9.53,47.48 C9.7972459,47.4788906 10.0529286,47.3708556 10.24,47.18 L14.24,43.02 L18.71,46.71 C19.0274625,46.9699526 19.4715061,47.0095994 19.83,46.81 C20.1848431,46.6096717 20.3826432,46.2140714 20.33,45.81 L19.6,40.07 L25.26,38.88 C25.6606261,38.7961598 25.969715,38.4766405 26.0402177,38.0734534 C26.1107204,37.6702663 25.9284018,37.2648178 25.58,37.05 L20.63,34.05 L23.23,28.88 C23.4140395,28.5160674 23.3586412,28.0768377 23.09,27.77 C22.8169597,27.4574504 22.3792448,27.346032 21.99,27.49 L16.56,29.49 L14.2,24.22 C14.0296935,23.8451231 13.6470183,23.6129547 13.2358634,23.6350598 C12.8247086,23.6571649 12.4691317,23.9290243 12.34,24.32 L10.52,29.82 L4.9,28.43 C4.5000468,28.3289148 4.0790666,28.4838037 3.84,28.82 C3.61132348,29.1583157 3.61132348,29.6016843 3.84,29.94 L7,34.8 L2.41,38.33 C2.06631484,38.5637838 1.90308411,38.985795 2,39.39 Z M8.9,35.82 C9.31185445,35.4992275 9.40767061,34.9156199 9.12,34.48 L6.87,31 L10.93,32 C11.4382755,32.1254099 11.9572467,31.8375772 12.12,31.34 L13.44,27.34 L15.19,31.14 C15.408145,31.6119139 15.9515101,31.8379538 16.44,31.66 L20.37,30.21 L18.49,34 C18.2574853,34.4637094 18.4181548,35.0282238 18.86,35.3 L22.43,37.47 L18.34,38.33 C17.8303988,38.4400985 17.4908929,38.9232415 17.56,39.44 L18.09,43.58 L14.87,40.92 C14.4683572,40.5833688 13.8749587,40.6139114 13.51,40.99 L10.6,44 L10.68,39.82 C10.6821057,39.3010348 10.2868638,38.866703 9.77,38.82 L5.61,38.42 L8.9,35.82 Z" id="Shape"></path>
        </g>
    </g>
</svg>
